<svg width="50" height="50" viewBox="0 0 50 50" fill="none" xmlns="http://www.w3.org/2000/svg">
<path d="M15.4605 43.6875H18.5625V41.5507C18.5625 41.5507 18.5274 38.2074 20.3651 35.3818C16.1762 35.0889 12.8514 31.3517 12.8514 26.7379C12.8514 25.1188 13.4661 23.6091 14.52 22.3097L14.6272 18.3229C14.6541 17.3102 15.6667 16.6192 16.6196 16.9637L20.8993 18.5106C22.1079 18.2094 23.4011 18.0382 24.75 18.0382C26.0989 18.0382 27.3921 18.2094 28.6007 18.5126L32.8804 16.9657C33.8332 16.6213 34.8459 17.3122 34.8727 18.3249L34.98 22.3097C36.0319 23.6091 36.6486 25.1188 36.6486 26.7379C36.6486 31.3517 33.3238 35.0889 29.1349 35.3818C30.9726 38.2074 30.9375 41.5507 30.9375 41.5507V43.6875H34.0395C39.1607 43.6875 43.3125 39.5357 43.3125 34.4166V15.8355C43.3125 10.7143 39.1607 6.5625 34.0395 6.5625H15.4687C10.3434 6.5625 6.1875 10.7184 6.1875 15.8437V34.4145C6.1875 39.5357 10.3393 43.6875 15.4605 43.6875" stroke="white" stroke-width="1.5" stroke-linecap="round" stroke-linejoin="round"/>
</svg>
