<svg width="48" height="48" viewBox="0 0 48 48" fill="none" xmlns="http://www.w3.org/2000/svg">
<path fill-rule="evenodd" clip-rule="evenodd" d="M12.7395 46.5H16.4995V43.91C16.4995 43.91 16.457 39.8575 18.6845 36.4325C13.607 36.0775 9.57701 31.5475 9.57701 25.955C9.57701 23.9925 10.322 22.1625 11.5995 20.5875L11.7295 15.755C11.762 14.5275 12.9895 13.69 14.1445 14.1075L19.332 15.9825C20.797 15.6175 22.3645 15.41 23.9995 15.41C25.6345 15.41 27.202 15.6175 28.667 15.985L33.8545 14.11C35.0095 13.6925 36.237 14.53 36.2695 15.7575L36.3995 20.5875C37.6745 22.1625 38.422 23.9925 38.422 25.955C38.422 31.5475 34.392 36.0775 29.3145 36.4325C31.542 39.8575 31.4995 43.91 31.4995 43.91V46.5H35.2595C41.467 46.5 46.4995 41.4675 46.4995 35.2625V12.74C46.4995 6.5325 41.467 1.5 35.2595 1.5H12.7495C6.53701 1.5 1.49951 6.5375 1.49951 12.75V35.26C1.49951 41.4675 6.53201 46.5 12.7395 46.5Z" stroke="white" stroke-width="2.5" stroke-linecap="round" stroke-linejoin="round"/>
</svg>
