<svg width="30" height="30" viewBox="0 0 30 30" fill="none" xmlns="http://www.w3.org/2000/svg">
<path d="M20 26.25H6.25C4.86875 26.25 3.75 25.1313 3.75 23.75V10" stroke="white" stroke-width="1.5" stroke-linecap="round" stroke-linejoin="round"/>
<path fill-rule="evenodd" clip-rule="evenodd" d="M23.75 3.75H10C8.61875 3.75 7.5 4.86875 7.5 6.25V20C7.5 21.3813 8.61875 22.5 10 22.5H23.75C25.1313 22.5 26.25 21.3813 26.25 20V6.25C26.25 4.86875 25.1313 3.75 23.75 3.75Z" stroke="white" stroke-width="1.5" stroke-linecap="round" stroke-linejoin="round"/>
<path d="M11.0186 6.86252C11.0148 6.86252 11.0123 6.86502 11.0123 6.86877C11.0123 6.87252 11.0148 6.87502 11.0186 6.87502C11.0223 6.87502 11.0248 6.87252 11.0248 6.86877C11.0248 6.86502 11.0223 6.86252 11.0186 6.86252" stroke="white" stroke-width="1.5" stroke-linecap="round" stroke-linejoin="round"/>
<path d="M14.1973 6.86252C14.1935 6.86252 14.191 6.86502 14.191 6.86877C14.191 6.87252 14.1948 6.87502 14.1973 6.87502C14.201 6.87502 14.2035 6.87252 14.2035 6.86877C14.2035 6.86502 14.201 6.86252 14.1973 6.86252" stroke="white" stroke-width="1.5" stroke-linecap="round" stroke-linejoin="round"/>
<path d="M17.3711 6.86252C17.3673 6.86252 17.3648 6.86502 17.3648 6.86877C17.3648 6.87252 17.3673 6.87502 17.3711 6.87502C17.3748 6.87502 17.3773 6.87252 17.3773 6.86877C17.3773 6.86502 17.3748 6.86252 17.3711 6.86252" stroke="white" stroke-width="1.5" stroke-linecap="round" stroke-linejoin="round"/>
<path d="M7.54492 10H26.2499" stroke="white" stroke-width="1.5" stroke-linecap="round" stroke-linejoin="round"/>
</svg>
