<svg width="35" height="35" viewBox="0 0 35 35" fill="none" xmlns="http://www.w3.org/2000/svg">
<path fill-rule="evenodd" clip-rule="evenodd" d="M25.9 29.4196H9.10002C6.78022 29.4196 4.90002 27.5394 4.90002 25.2196V8.4196C4.90002 6.0998 6.78022 4.2196 9.10002 4.2196H25.9C28.2198 4.2196 30.1 6.0998 30.1 8.4196V25.2196C30.1 27.5394 28.2198 29.4196 25.9 29.4196Z" stroke="white" stroke-width="1.5" stroke-linecap="round" stroke-linejoin="round"/>
<path d="M20.3 12.2976L22.5484 11.3344C23.4724 10.9382 24.5 11.6158 24.5 12.621V21.0182C24.5 21.9478 23.6096 22.6198 22.715 22.365L20.3 21.6748" stroke="white" stroke-width="1.5" stroke-linecap="round" stroke-linejoin="round"/>
<path fill-rule="evenodd" clip-rule="evenodd" d="M20.3 22.4182V11.221C20.3 10.2158 19.2724 9.53819 18.3484 9.93439L11.3484 12.9346C10.8332 13.1544 10.5 13.6612 10.5 14.2212V20.419C10.5 21.0434 10.9144 21.5936 11.515 21.7658L18.515 23.7664C19.4096 24.0198 20.3 23.3492 20.3 22.4182V22.4182Z" stroke="white" stroke-width="1.5" stroke-linecap="round" stroke-linejoin="round"/>
</svg>
