<svg width="35" height="35" viewBox="0 0 35 35" fill="none" xmlns="http://www.w3.org/2000/svg">
<path d="M14.5833 2.91667H20.4167" stroke="white" stroke-width="1.5" stroke-linecap="round" stroke-linejoin="round"/>
<path d="M9.25022 10.7085C13.8061 6.15271 21.194 6.15271 25.7498 10.7085C30.3056 15.2644 30.3056 22.6523 25.7498 27.2081C21.194 31.764 13.8061 31.764 9.25022 27.2081C4.69439 22.6523 4.69439 15.2644 9.25022 10.7085" stroke="white" stroke-width="1.5" stroke-linecap="round" stroke-linejoin="round"/>
<path d="M17.5029 18.2292C17.0975 18.2292 16.7708 18.5558 16.7708 18.9583C16.7708 19.3608 17.0975 19.6875 17.5 19.6875C17.9025 19.6875 18.2292 19.3608 18.2292 18.9583C18.2321 18.5558 17.9054 18.2292 17.5029 18.2292" stroke="white" stroke-width="1.5" stroke-linecap="round" stroke-linejoin="round"/>
<path d="M24.6531 17.6385C24.7392 18.0658 24.7917 18.5048 24.7917 18.9583" stroke="white" stroke-width="1.5" stroke-linecap="round" stroke-linejoin="round"/>
<path d="M18.0104 18.4479L22.6625 13.7958" stroke="white" stroke-width="1.5" stroke-linecap="round" stroke-linejoin="round"/>
<path d="M29.1667 7.29166L25.7542 10.7042" stroke="white" stroke-width="1.5" stroke-linecap="round" stroke-linejoin="round"/>
<path d="M27.7083 5.83334L30.625 8.75" stroke="white" stroke-width="1.5" stroke-linecap="round" stroke-linejoin="round"/>
<path d="M10.2083 18.9583C10.2083 14.9319 13.4736 11.6667 17.5 11.6667C17.9536 11.6667 18.3925 11.7192 18.8198 11.8052" stroke="white" stroke-width="1.5" stroke-linecap="round" stroke-linejoin="round"/>
</svg>
