<svg width="30" height="30" viewBox="0 0 30 30" fill="none" xmlns="http://www.w3.org/2000/svg">
<path d="M17.1875 25H25" stroke="white" stroke-width="1.5" stroke-linecap="round" stroke-linejoin="round"/>
<path d="M5 25H12.8125" stroke="white" stroke-width="1.5" stroke-linecap="round" stroke-linejoin="round"/>
<path d="M15 22.8125C16.2075 22.8125 17.1875 23.7912 17.1875 25C17.1875 26.2075 16.2088 27.1875 15 27.1875C13.7925 27.1875 12.8125 26.2088 12.8125 25C12.8125 23.7925 13.7925 22.8125 15 22.8125" stroke="white" stroke-width="1.5" stroke-linecap="round" stroke-linejoin="round"/>
<path fill-rule="evenodd" clip-rule="evenodd" d="M15.0022 3.75C11.4797 3.75 8.62598 6.60375 8.62598 10.1262C6.27848 10.1262 4.37598 12.0287 4.37598 14.3762C4.37598 16.7237 6.27848 18.6262 8.62598 18.6262H20.3122C23.246 18.6262 25.6247 16.2475 25.6247 13.3137C25.6247 10.6262 23.621 8.4275 21.0297 8.07375C20.176 5.56 17.801 3.75 15.0022 3.75Z" stroke="white" stroke-width="1.5" stroke-linecap="round" stroke-linejoin="round"/>
<path d="M15 18.6262V22.8125" stroke="white" stroke-width="1.5" stroke-linecap="round" stroke-linejoin="round"/>
</svg>
