<svg width="35" height="35" viewBox="0 0 35 35" fill="none" xmlns="http://www.w3.org/2000/svg">
<path d="M19.914 15.086C21.2472 16.4193 21.2472 18.5809 19.914 19.9141C18.5807 21.2473 16.4191 21.2473 15.0859 19.9141C13.7527 18.5809 13.7527 16.4192 15.0859 15.086C16.4192 13.7528 18.5808 13.7528 19.914 15.086" stroke="white" stroke-width="1.5" stroke-linecap="round" stroke-linejoin="round"/>
<path d="M31.2797 15.3272C32.4796 16.5272 32.4796 18.4727 31.2797 19.6727C30.0797 20.8727 28.1342 20.8727 26.9342 19.6727C25.7342 18.4727 25.7342 16.5272 26.9342 15.3272C28.1342 14.1273 30.0797 14.1273 31.2797 15.3272" stroke="white" stroke-width="1.5" stroke-linecap="round" stroke-linejoin="round"/>
<path d="M8.06585 15.3272C9.26582 16.5272 9.26582 18.4727 8.06585 19.6727C6.86588 20.8727 4.92035 20.8727 3.72038 19.6727C2.52041 18.4727 2.52041 16.5272 3.72038 15.3272C4.92035 14.1273 6.86587 14.1273 8.06585 15.3272" stroke="white" stroke-width="1.5" stroke-linecap="round" stroke-linejoin="round"/>
<path d="M25.4755 5.27498C26.6755 6.47495 26.6755 8.42048 25.4755 9.62045C24.2755 10.8204 22.33 10.8204 21.13 9.62045C19.93 8.42048 19.93 6.47496 21.13 5.27498C22.33 4.07502 24.2755 4.07502 25.4755 5.27498" stroke="white" stroke-width="1.5" stroke-linecap="round" stroke-linejoin="round"/>
<path d="M13.87 25.3795C15.07 26.5795 15.07 28.525 13.87 29.725C12.6701 30.925 10.7245 30.925 9.52455 29.725C8.32458 28.525 8.32458 26.5795 9.52455 25.3795C10.7245 24.1796 12.67 24.1796 13.87 25.3795" stroke="white" stroke-width="1.5" stroke-linecap="round" stroke-linejoin="round"/>
<path d="M13.87 5.27498C15.07 6.47495 15.07 8.42048 13.87 9.62045C12.6701 10.8204 10.7245 10.8204 9.52455 9.62045C8.32458 8.42048 8.32458 6.47496 9.52455 5.27498C10.7245 4.07502 12.67 4.07502 13.87 5.27498" stroke="white" stroke-width="1.5" stroke-linecap="round" stroke-linejoin="round"/>
<path d="M25.4755 25.3795C26.6755 26.5795 26.6755 28.525 25.4755 29.725C24.2755 30.925 22.33 30.925 21.13 29.725C19.93 28.525 19.93 26.5795 21.13 25.3795C22.33 24.1796 24.2755 24.1796 25.4755 25.3795" stroke="white" stroke-width="1.5" stroke-linecap="round" stroke-linejoin="round"/>
<path d="M13.2271 24.8938L15.7937 20.4458" stroke="white" stroke-width="1.5" stroke-linecap="round" stroke-linejoin="round"/>
<path d="M13.2271 10.1063L15.7937 14.5542" stroke="white" stroke-width="1.5" stroke-linecap="round" stroke-linejoin="round"/>
<path d="M26.0313 17.5H20.9125" stroke="white" stroke-width="1.5" stroke-linecap="round" stroke-linejoin="round"/>
</svg>
