<svg width="35" height="35" viewBox="0 0 35 35" fill="none" xmlns="http://www.w3.org/2000/svg">
<path d="M26.1406 7.63729C28.2742 9.50833 29.801 12.0531 30.3727 14.9479" stroke="white" stroke-width="1.5" stroke-linecap="round" stroke-linejoin="round"/>
<path d="M8.85937 27.3627C6.72583 25.4917 5.19896 22.9469 4.62729 20.0521" stroke="white" stroke-width="1.5" stroke-linecap="round" stroke-linejoin="round"/>
<path d="M21.7233 29.9177C20.3962 30.3698 18.9787 30.625 17.5 30.625C16.0212 30.625 14.6037 30.3698 13.2767 29.9177" stroke="white" stroke-width="1.5" stroke-linecap="round" stroke-linejoin="round"/>
<path d="M21.7233 5.08229C20.3962 4.63021 18.9787 4.375 17.5 4.375C16.0212 4.375 14.6037 4.63021 13.2767 5.08229" stroke="white" stroke-width="1.5" stroke-linecap="round" stroke-linejoin="round"/>
<path d="M26.1406 27.3627C28.2742 25.4917 29.801 22.9469 30.3727 20.0521" stroke="white" stroke-width="1.5" stroke-linecap="round" stroke-linejoin="round"/>
<path d="M4.62729 14.9479C5.1975 12.0531 6.72437 9.50979 8.85937 7.63729" stroke="white" stroke-width="1.5" stroke-linecap="round" stroke-linejoin="round"/>
<path d="M15.0442 15.6771V13.7579C15.0442 12.4017 16.1437 11.3021 17.5 11.3021C18.8563 11.3021 19.9558 12.4017 19.9558 13.7579V15.6771" stroke="white" stroke-width="1.5" stroke-linecap="round" stroke-linejoin="round"/>
<path fill-rule="evenodd" clip-rule="evenodd" d="M20.4167 22.9688H14.5833C13.7783 22.9688 13.125 22.3154 13.125 21.5104V17.1354C13.125 16.3304 13.7783 15.6771 14.5833 15.6771H20.4167C21.2217 15.6771 21.875 16.3304 21.875 17.1354V21.5104C21.875 22.3154 21.2217 22.9688 20.4167 22.9688Z" stroke="white" stroke-width="1.5" stroke-linecap="round" stroke-linejoin="round"/>
</svg>
